<svg width="24" height="24" viewBox="0 0 24 24" fill="none" xmlns="http://www.w3.org/2000/svg">
<g opacity="0.8">
<path d="M16.3985 13.1603C19.4129 13.1603 21.8198 15.7771 21.9301 18.9992L21.9341 19.2303V20.4882C21.9341 21.0235 21.5275 21.4642 21.0052 21.5206L20.8916 21.5267H4.04253C3.50514 21.5267 3.06272 21.1216 3.00612 20.6013L3 20.4882V19.2303C3 15.9806 5.33681 13.2882 8.32135 13.1647L8.53561 13.1603H16.3985ZM16.3985 14.9603H8.53561C6.56482 14.9603 4.90353 16.7279 4.80465 19.0145L4.8 19.2303L4.799 19.726H20.1341V19.2303C20.1341 16.9125 18.5325 15.0747 16.5823 14.9654L16.3985 14.9603ZM12.4671 2C15.1642 2 17.3466 4.19477 17.3466 6.89721C17.3466 9.59965 15.1642 11.7944 12.4671 11.7944C9.76992 11.7944 7.58753 9.59965 7.58753 6.89721C7.58753 4.19477 9.76992 2 12.4671 2ZM12.4671 3.8C10.7673 3.8 9.38753 5.18563 9.38753 6.89721C9.38753 8.60879 10.7673 9.99442 12.4671 9.99442C14.1668 9.99442 15.5466 8.60879 15.5466 6.89721C15.5466 5.18563 14.1668 3.8 12.4671 3.8Z" fill="white"/>
</g>
</svg>
