<svg width="150" height="44" viewBox="0 0 150 44" fill="none" xmlns="http://www.w3.org/2000/svg">
<path d="M68.1626 10.8169V30.8311C68.2146 31.1969 67.9546 31.5104 67.5907 31.5627C67.5387 31.5627 67.4867 31.5627 67.4347 31.5627H64.939C64.5751 31.615 64.2631 31.3537 64.2111 30.9879C64.2111 30.9356 64.2111 30.8834 64.2111 30.8311V29.786C63.1193 31.1969 61.5075 32.033 59.2719 32.033C55.2164 32.033 51.8369 28.5318 51.8369 23.9332C51.8369 19.3347 55.2164 15.8335 59.2719 15.8335C61.5075 15.8335 63.1193 16.6696 64.2111 18.0805V10.8169C64.1592 10.4511 64.4191 10.1375 64.7831 10.0853C64.8351 10.0853 64.8871 10.0853 64.939 10.0853H67.4347C67.7986 10.033 68.1106 10.2943 68.1626 10.6601C68.1626 10.7123 68.1626 10.7646 68.1626 10.8169ZM64.2111 23.881C64.3151 21.5294 62.4434 19.5437 60.1037 19.4914C57.7641 19.3869 55.7883 21.2682 55.7364 23.6197C55.7364 23.7242 55.7364 23.8287 55.7364 23.9332C55.6324 26.2848 57.5041 28.2705 59.8438 28.3228C62.1834 28.4273 64.1592 26.5461 64.2111 24.1945C64.2111 24.09 64.2111 23.9855 64.2111 23.881Z" fill="white"/>
<path d="M82.4605 16.1995C82.8244 16.1473 83.1364 16.4086 83.1884 16.7744C83.1884 16.8266 83.1884 16.8789 83.1884 16.9311V30.8314C83.2404 31.1972 82.9804 31.5107 82.6164 31.563C82.5644 31.563 82.5125 31.563 82.4605 31.563H79.9648C79.6009 31.6152 79.2889 31.3539 79.2369 30.9881C79.2369 30.9359 79.2369 30.8836 79.2369 30.8314V29.9953C78.405 31.3017 76.9492 31.981 75.0775 31.981C72.2179 31.981 70.0862 29.7862 70.0862 26.0238V16.9311C70.0342 16.5653 70.2942 16.2518 70.6581 16.1995C70.7101 16.1995 70.7621 16.1995 70.8141 16.1995H73.3098C73.6737 16.1473 73.9857 16.4086 74.0377 16.7744C74.0377 16.8266 74.0377 16.8789 74.0377 16.9311V25.7102C74.0377 27.4869 75.0775 28.3231 76.4813 28.3231C78.0411 28.3231 79.2369 27.4347 79.2369 25.0831V16.9311C79.1849 16.5653 79.4449 16.2518 79.8088 16.1995C79.8608 16.1995 79.9128 16.1995 79.9648 16.1995H82.4605Z" fill="white"/>
<path d="M98.2663 31.5627H95.3547C94.9908 31.5627 94.6788 31.4059 94.4708 31.1446L89.4796 24.6648V30.8311C89.5315 31.1969 89.2716 31.5104 88.9076 31.5627C88.8556 31.5627 88.8036 31.5627 88.7517 31.5627H86.256C85.8921 31.615 85.5801 31.3537 85.5281 30.9879C85.5281 30.9356 85.5281 30.8834 85.5281 30.8311V10.8169C85.4761 10.4511 85.7361 10.1375 86.1 10.0853C86.152 10.0853 86.204 10.0853 86.256 10.0853H88.7517C89.1156 10.033 89.4276 10.2943 89.4796 10.6601C89.4796 10.7124 89.4796 10.7646 89.4796 10.8169V22.9926L94.2109 16.6696C94.4189 16.3561 94.7308 16.1993 95.0948 16.1993H98.0064C98.5783 16.1993 98.7862 16.6173 98.4223 17.0876L93.275 23.8287L98.6823 30.7266C99.0982 31.1969 98.8902 31.5627 98.2663 31.5627Z" fill="white"/>
<path d="M106.377 15.7812C109.756 15.7812 112.616 17.8193 112.616 21.7908V30.8311C112.668 31.1969 112.408 31.5105 112.044 31.5627C111.992 31.5627 111.94 31.5627 111.888 31.5627H109.496C109.133 31.615 108.821 31.3537 108.769 30.9879C108.769 30.9356 108.769 30.8834 108.769 30.8311V30.2563C107.885 31.3537 106.585 31.9808 104.609 31.9808C101.906 31.9808 99.4619 30.3608 99.4619 27.1732C99.4619 23.9855 101.906 22.3656 104.609 22.3656C106.117 22.2611 107.625 22.7836 108.769 23.7242V22.1043C108.769 20.2753 107.833 19.5437 106.377 19.5437C105.233 19.5437 104.349 20.014 104.089 20.8501C103.933 21.2682 103.777 21.4772 103.361 21.4772H100.918C100.554 21.5295 100.242 21.2682 100.19 20.9024C100.19 20.8501 100.19 20.7979 100.19 20.6934C100.606 17.558 103.309 15.8335 106.377 15.7812ZM108.769 27.1732C108.769 25.9713 107.677 25.2397 105.961 25.2397C104.245 25.2397 103.413 26.0235 103.413 27.1732C103.413 28.3228 104.245 29.1067 105.961 29.1067C107.677 29.1067 108.769 28.2706 108.769 27.1732Z" fill="white"/>
<path d="M121.351 15.7812C124.731 15.7812 127.59 17.8193 127.59 21.7908V30.8311C127.642 31.1969 127.382 31.5105 127.018 31.5627C126.966 31.5627 126.914 31.5627 126.862 31.5627H124.471C124.107 31.615 123.795 31.3537 123.743 30.9879C123.743 30.9356 123.743 30.8834 123.743 30.8311V30.2563C122.859 31.3537 121.559 31.9808 119.583 31.9808C116.88 31.9808 114.436 30.3608 114.436 27.1732C114.436 23.9855 116.88 22.3656 119.583 22.3656C121.091 22.2611 122.599 22.7836 123.743 23.7242V22.1043C123.743 20.2753 122.807 19.5437 121.351 19.5437C120.207 19.5437 119.323 20.014 119.063 20.8501C118.907 21.2682 118.751 21.4772 118.335 21.4772H115.892C115.528 21.5295 115.216 21.2682 115.164 20.9024C115.164 20.8501 115.164 20.7979 115.164 20.6934C115.58 17.558 118.231 15.8335 121.351 15.7812ZM123.691 27.1732C123.691 25.9713 122.599 25.2397 120.883 25.2397C119.167 25.2397 118.335 26.0235 118.335 27.1732C118.335 28.3228 119.167 29.1067 120.883 29.1067C122.599 29.1067 123.691 28.2706 123.691 27.1732Z" fill="white"/>
<path d="M137.677 15.7812C140.536 15.7812 142.616 17.976 142.616 21.7385V30.8311C142.668 31.1969 142.408 31.5105 142.044 31.5627C141.992 31.5627 141.94 31.5627 141.888 31.5627H139.393C139.029 31.615 138.717 31.3537 138.665 30.9879C138.665 30.9356 138.665 30.8834 138.665 30.8311V22.052C138.665 20.2753 137.625 19.4392 136.221 19.4392C134.661 19.4392 133.465 20.3276 133.465 22.6791V30.8311C133.517 31.1969 133.257 31.5105 132.893 31.5627C132.841 31.5627 132.789 31.5627 132.737 31.5627H130.242C129.878 31.615 129.566 31.3537 129.514 30.9879C129.514 30.9356 129.514 30.8834 129.514 30.8311V16.9309C129.462 16.5651 129.722 16.2516 130.086 16.1993C130.138 16.1993 130.19 16.1993 130.242 16.1993H132.737C133.101 16.147 133.413 16.4083 133.465 16.7741C133.465 16.8264 133.465 16.8786 133.465 16.9309V17.767C134.349 16.5128 135.753 15.8335 137.677 15.7812Z" fill="white"/>
<path opacity="0.3" d="M21.8889 44C33.9778 44 43.7778 34.1503 43.7778 22C43.7778 9.84974 33.9778 0 21.8889 0C9.8 0 0 9.84974 0 22C0 34.1503 9.8 44 21.8889 44Z" fill="white"/>
<path d="M30.5196 10.4512H13.258C11.5942 10.4512 10.1904 11.8098 10.1904 13.5343V30.5177C10.1904 32.1899 11.5422 33.5486 13.258 33.5486H30.5196C32.1833 33.5486 33.5351 32.1899 33.5351 30.5177V13.4821C33.5351 11.8098 32.1833 10.4512 30.5196 10.4512ZM21.8888 23.9856C17.6254 23.9856 14.0899 20.6935 13.7259 16.4084C13.6739 15.4678 14.3498 14.684 15.2337 14.6317C16.1176 14.5794 16.9495 15.2588 17.0015 16.1471C17.2094 18.8122 19.4971 20.8502 22.2007 20.6412C24.5924 20.4844 26.5161 18.5509 26.6721 16.1471C26.7241 15.2065 27.504 14.5272 28.4398 14.5794C28.9078 14.6317 29.3237 14.8407 29.6357 15.1543C29.9476 15.4678 30.0516 15.9381 30.0516 16.3562C29.6877 20.6935 26.1522 23.9856 21.8888 23.9856Z" fill="white"/>
<path d="M146.203 8.57031C144.071 8.57031 142.408 10.2948 142.408 12.385C142.408 14.4753 144.123 16.1998 146.203 16.1998C148.283 16.1998 149.999 14.4753 149.999 12.385C150.051 10.2425 148.335 8.57031 146.203 8.57031ZM146.203 9.14513C147.971 9.14513 149.427 10.6083 149.427 12.385C149.427 14.1618 147.971 15.6249 146.203 15.6249C144.435 15.6249 142.98 14.1618 142.98 12.385C142.98 10.6083 144.435 9.14513 146.203 9.14513ZM145.059 10.6083V14.1618H145.631V12.8553H146.411L147.243 14.1618H147.815L146.983 12.8031C147.087 12.8031 147.139 12.7508 147.243 12.7508C147.399 12.6986 147.555 12.5941 147.659 12.4896C147.763 12.385 147.815 12.2805 147.867 12.1238C147.919 12.0192 147.919 11.8625 147.919 11.758C147.919 11.6534 147.919 11.4967 147.867 11.3922C147.815 11.2354 147.763 11.1309 147.659 11.0264C147.555 10.9219 147.399 10.8173 147.243 10.7651C147.035 10.6606 146.775 10.6083 146.567 10.6606L145.059 10.6083ZM145.631 11.0786H146.411C146.515 11.0786 146.619 11.0786 146.723 11.0786C146.827 11.0786 146.931 11.1309 147.035 11.1831C147.139 11.2354 147.191 11.2877 147.243 11.3399C147.295 11.4444 147.347 11.5489 147.347 11.6534C147.347 11.758 147.347 11.8625 147.243 11.967C147.191 12.0715 147.139 12.1238 147.035 12.176L146.723 12.2805C146.619 12.2805 146.515 12.3328 146.411 12.2805H145.631V11.0786Z" fill="white"/>
</svg>
