<svg width="36" height="36" viewBox="0 0 36 36" fill="none" xmlns="http://www.w3.org/2000/svg">
<path fill-rule="evenodd" clip-rule="evenodd" d="M18 36C27.9411 36 36 27.9411 36 18C36 8.05887 27.9411 0 18 0C8.05887 0 0 8.05887 0 18C0 27.9411 8.05887 36 18 36ZM7.89796 17.0978C7.9001 11.2491 12.691 6.49194 18.5761 6.49194C21.432 6.49301 24.1111 7.59746 26.1269 9.60192C28.1428 11.6074 29.2521 14.273 29.25 17.1082C29.2468 22.9559 24.458 27.7141 18.574 27.7141H18.5698C16.7827 27.713 15.0272 27.2691 13.4677 26.4236L7.875 27.7369L9.3238 22.4007C8.38962 20.7925 7.89689 18.9674 7.89796 17.0978ZM24.6155 11.104C23.0026 9.50213 20.8571 8.6175 18.574 8.61644C13.8678 8.61644 10.0378 12.4218 10.0357 17.0978C10.0346 18.5881 10.4294 20.0553 11.1755 21.3385L11.6181 22.102L11.3864 22.9526L10.8728 24.8489L12.9771 24.3551L13.7725 24.1684L14.4927 24.5584C15.7358 25.233 17.1471 25.5885 18.5719 25.5896C23.2813 25.5896 27.1102 21.7842 27.1123 17.1061C27.1144 14.8393 26.2284 12.708 24.6155 11.104ZM14.0856 12.5335C14.3304 12.2679 14.619 12.2015 14.7975 12.2015H14.8094C14.9828 12.2015 15.1553 12.2015 15.3069 12.2077C15.4971 12.2152 15.7082 12.2254 15.9081 12.6663C16.0456 12.9702 16.2775 13.5375 16.4613 13.9868C16.5947 14.3131 16.7027 14.5772 16.7306 14.6331C16.7969 14.7658 16.8423 14.9215 16.7536 15.0978C16.7415 15.1218 16.7303 15.1445 16.7195 15.1663C16.6508 15.305 16.6009 15.4057 16.4864 15.5397C16.4404 15.5931 16.393 15.6507 16.3458 15.7081C16.2557 15.8176 16.1662 15.9264 16.0876 16.0044C15.954 16.1362 15.8137 16.2814 15.9686 16.5459C16.1247 16.8115 16.6598 17.6778 17.4529 18.38C18.304 19.1336 19.0432 19.4537 19.4198 19.6168C19.4944 19.6491 19.5548 19.6753 19.599 19.6974C19.8662 19.8302 20.0212 19.8063 20.1773 19.6289C20.3333 19.4526 20.8432 18.8572 21.0207 18.5916C21.1981 18.326 21.3771 18.3706 21.6219 18.4588C21.8667 18.547 23.1782 19.187 23.4444 19.3198C23.4972 19.3461 23.5465 19.3697 23.5921 19.3915C23.7775 19.4804 23.9027 19.5403 23.9558 19.6289C24.0221 19.7384 24.0216 20.2711 23.7993 20.8904C23.5769 21.5097 22.4872 22.1062 21.9977 22.1497C21.951 22.154 21.9047 22.1594 21.8571 22.165C21.4047 22.2179 20.836 22.2845 18.7974 21.4858C16.2878 20.5027 14.6335 18.0643 14.2958 17.5665C14.2686 17.5264 14.25 17.4989 14.2401 17.4858L14.2375 17.4823C14.0946 17.2926 13.1504 16.0393 13.1504 14.743C13.1504 13.5215 13.7559 12.8821 14.0338 12.5886C14.0527 12.5686 14.0701 12.5503 14.0856 12.5335Z" fill="#49C759"/>
</svg>
