<svg width="24" height="24" viewBox="0 0 24 24" fill="none" xmlns="http://www.w3.org/2000/svg">
<path fill-rule="evenodd" clip-rule="evenodd" d="M12.9209 2.71636L20.4209 8.5497C20.7863 8.83388 21 9.27084 21 9.73372V20.0001C21 21.1047 20.1046 22.0001 19 22.0001L15.54 21.9994L15.5455 21.9092V14.6365L15.541 14.4816C15.4608 13.0976 14.3131 12.0001 12.9091 12.0001H11.0909L10.936 12.0046C9.55208 12.0848 8.45455 13.2324 8.45455 14.6365V21.9092L8.459 21.9994L5 22.0001C3.89543 22.0001 3 21.1047 3 20.0001V9.73372C3 9.27084 3.21371 8.83388 3.57909 8.5497L11.0791 2.71636C11.6208 2.29507 12.3792 2.29507 12.9209 2.71636ZM12.9091 13.6365L13.0181 13.6423C13.5191 13.6966 13.9091 14.121 13.9091 14.6365V21.9092L13.914 21.9994H10.085L10.0909 21.9092V14.6365L10.0968 14.5275C10.1511 14.0265 10.5754 13.6365 11.0909 13.6365H12.9091Z" fill="white"/>
</svg>
