<svg width="24" height="24" viewBox="0 0 24 24" fill="none" xmlns="http://www.w3.org/2000/svg">
<g opacity="0.8">
<path d="M22.8048 16.5976C23.01 17.008 22.8722 17.5002 22.5001 17.7483L22.4023 17.8051L12.4023 22.8051C12.1851 22.9137 11.935 22.9292 11.7084 22.8516L11.5973 22.8051L1.59731 17.8051C1.15273 17.5828 0.972532 17.0422 1.19482 16.5976C1.40001 16.1872 1.87643 16.0021 2.29819 16.1509L2.4023 16.1951L11.9998 20.9941L21.5973 16.1951C22.0419 15.9728 22.5825 16.153 22.8048 16.5976ZM22.8048 11.5976C23.01 12.008 22.8722 12.5002 22.5001 12.7483L22.4023 12.8051L12.4023 17.8051C12.1851 17.9137 11.935 17.9292 11.7084 17.8516L11.5973 17.8051L1.59731 12.8051C1.15273 12.5828 0.972532 12.0422 1.19482 11.5976C1.40001 11.1872 1.87643 11.0021 2.29819 11.1509L2.4023 11.1951L11.9998 15.9941L21.5973 11.1951C22.0419 10.9728 22.5825 11.153 22.8048 11.5976ZM11.5973 1.19511C11.8507 1.06843 12.1489 1.06843 12.4023 1.19511L22.4023 6.19511C23.0656 6.52679 23.0656 7.47341 22.4023 7.80508L12.4023 12.8051C12.1489 12.9318 11.8507 12.9318 11.5973 12.8051L1.59731 7.80508C0.933971 7.47341 0.933971 6.52679 1.59731 6.19511L11.5973 1.19511ZM11.9998 3.0051L4.01081 7.0001L11.9998 10.9941L19.9878 7.0001L11.9998 3.0051Z" fill="white"/>
</g>
</svg>
