<svg width="24" height="24" viewBox="0 0 24 24" fill="none" xmlns="http://www.w3.org/2000/svg">
<g opacity="0.8" clip-path="url(#clip0)">
<path d="M2.55831 5.03458L2.55669 5.04873L2.55588 5.06296L2.54898 5.18382L2.54817 5.19806V5.21233V19.6619C2.54817 20.6393 3.41762 21.3644 4.40391 21.4443L4.41403 21.4451L4.42417 21.4455L4.57624 21.4516L4.58628 21.452H4.59633H18.5298C19.5439 21.452 20.4592 20.7882 20.5678 19.8396L20.5695 19.8255L20.5703 19.8112L20.5772 19.6904L20.578 19.6761V19.6619V5.21233C20.578 4.23488 19.7085 3.50981 18.7222 3.42994L18.7121 3.42912L18.702 3.42871L18.5499 3.42259L18.5399 3.42219H18.5298H16.5766C16.5914 3.34045 16.6025 3.2477 16.6025 3.14811C16.6025 3.0481 16.5889 2.95558 16.5703 2.87402H18.5298C19.9346 2.87402 21.041 3.86525 21.1213 5.06749L21.1262 5.22022V19.6619C21.1262 20.8842 20.0753 21.9197 18.6898 21.9958L18.5233 22.0002H4.59633C3.19158 22.0002 2.0852 21.0089 2.00482 19.8067L2 19.654V5.21233C2 3.99001 3.05089 2.95448 4.4363 2.87841L4.60291 2.87402H6.54957C6.53473 2.95576 6.52362 3.04852 6.52362 3.14811C6.52362 3.24812 6.53721 3.34064 6.55589 3.42219H4.59633C3.58221 3.42219 2.66693 4.08599 2.55831 5.03458ZM16.1955 3.42181C16.1955 3.4218 16.196 3.42183 16.1968 3.42192L16.1955 3.42181ZM16.4849 3.7947C16.4847 3.79602 16.4846 3.7967 16.4846 3.79669L16.4849 3.7947ZM6.93064 2.87441C6.93063 2.87442 6.93019 2.87439 6.92935 2.87429L6.93064 2.87441ZM6.6413 2.50151C6.64145 2.50022 6.64156 2.49954 6.64158 2.49953L6.6413 2.50151Z" fill="white" stroke="white"/>
<path d="M10.7902 9.03923L10.7808 9.03888H10.7714H9.01651C8.90423 9.03888 8.81201 8.94666 8.81201 8.83438C8.81201 8.7221 8.90423 8.62988 9.01651 8.62988H15.1442C15.2565 8.62988 15.3487 8.7221 15.3487 8.83438C15.3487 8.94378 15.2612 9.03414 15.1528 9.0387L13.4563 8.95543L12.3644 8.90184L13.038 9.7629L13.0493 9.77738C13.2804 10.0902 13.4466 10.4506 13.5339 10.8309L13.8841 10.7506L13.9813 11.2357L15.144 11.2362H15.1442C15.2407 11.2362 15.3261 11.3056 15.3452 11.404L15.3484 11.4523C15.3424 11.5571 15.2561 11.6418 15.1506 11.6451L14.0529 11.6049L13.6372 11.5897L13.5466 11.9957L13.5071 12.1728C13.1938 13.3517 12.1488 14.2087 10.9241 14.2762L10.7729 14.2798L9.55983 14.3091L10.4414 15.1429L13.5403 18.0743C13.6007 18.1346 13.6185 18.2223 13.5877 18.301L13.5635 18.3439L13.5365 18.3779C13.457 18.4501 13.3364 18.4484 13.2603 18.3761L13.2596 18.3753L8.87622 14.2294C8.83283 14.1841 8.81496 14.1304 8.81497 14.0922H8.81506L8.81489 14.0831C8.81294 13.9738 8.89927 13.8753 9.02501 13.8714L10.7704 13.8715L10.7716 13.8714C11.6559 13.8693 12.4536 13.3879 12.8765 12.6447L12.8941 12.6447L12.9662 12.4709C12.9969 12.4049 13.0249 12.3371 13.0498 12.2677L12.5602 12.0783L12.5601 11.6447L9.01651 11.6452C9.0165 11.6452 9.01648 11.6452 9.01647 11.6452C9.01646 11.6452 9.01645 11.6452 9.01644 11.6452C8.9306 11.6452 8.85323 11.5901 8.82398 11.5083L8.81466 11.4641L8.81234 11.4291C8.81836 11.3232 8.90626 11.238 9.01312 11.2362L12.5737 11.3049L13.3041 11.319L13.0529 10.6331C12.7276 9.74504 11.9044 9.11698 10.9549 9.04577L10.9456 9.04508L10.9363 9.04473L10.7902 9.03923Z" fill="white" stroke="white"/>
<path d="M14.6596 0C15.6499 0 16.4973 0.685508 16.7197 1.63484L16.7509 1.79543L16.7695 1.95872L16.7754 2.11583V4.18005C16.7754 5.17042 16.0899 6.01777 15.1406 6.24017L14.98 6.27137L14.8167 6.28998L14.6596 6.29587H8.4669C7.47652 6.29587 6.62918 5.61037 6.40678 4.66103L6.37558 4.50044L6.35697 4.33716L6.35107 4.18005V2.11583C6.35107 1.12545 7.03658 0.278103 7.98591 0.055705L8.1465 0.0245079L8.30979 0.00589551L8.4669 0H14.6596ZM14.3503 1.18693H8.77621L8.64576 1.19405L8.50623 1.21734L8.37275 1.25575C8.02537 1.37656 7.74951 1.64152 7.619 1.98309L7.57464 2.12485L7.54913 2.2587L7.53833 2.40538L7.53768 3.87037L7.5448 4.00086L7.56809 4.1404L7.6065 4.27387C7.72731 4.62125 7.99227 4.89711 8.33384 5.02762L8.4756 5.07198L8.60945 5.09749L8.75613 5.10829L14.3502 5.10895L14.4807 5.10183L14.6202 5.07854L14.7537 5.04012C15.1011 4.91932 15.377 4.65435 15.5075 4.31278L15.5518 4.17102L15.5773 4.03717L15.5881 3.89049L15.5888 2.4255L15.5815 2.29335L15.5597 2.16087L15.5236 2.03236C15.3541 1.531 14.8866 1.18693 14.3503 1.18693Z" fill="white" stroke="white" stroke-width="0.2"/>
</g>
<defs>
<clipPath id="clip0">
<rect width="24" height="24" fill="white"/>
</clipPath>
</defs>
</svg>
