<svg width="24" height="24" viewBox="0 0 24 24" fill="none" xmlns="http://www.w3.org/2000/svg">
<g opacity="0.8">
<path d="M20.4971 13C21.3255 13 21.9971 13.6716 21.9971 14.5V20.5C21.9971 21.3284 21.3255 22 20.4971 22H14.4971C13.6686 22 12.9971 21.3284 12.9971 20.5V14.5C12.9971 13.6716 13.6686 13 14.4971 13H20.4971ZM9.5 13C10.3284 13 11 13.6716 11 14.5V20.5C11 21.3284 10.3284 22 9.5 22H3.5C2.67157 22 2 21.3284 2 20.5V14.5C2 13.6716 2.67157 13 3.5 13H9.5ZM20.297 14.7H14.697V20.3H20.297V14.7ZM9.3 14.7H3.7V20.3H9.3V14.7ZM9.5 2C10.3284 2 11 2.67157 11 3.5V9.5C11 10.3284 10.3284 11 9.5 11H3.5C2.67157 11 2 10.3284 2 9.5V3.5C2 2.67157 2.67157 2 3.5 2H9.5ZM20.4971 2C21.3255 2 21.9971 2.67157 21.9971 3.5V9.5C21.9971 10.3284 21.3255 11 20.4971 11H14.4971C13.6686 11 12.9971 10.3284 12.9971 9.5V3.5C12.9971 2.67157 13.6686 2 14.4971 2H20.4971ZM9.3 3.7H3.7V9.3H9.3V3.7ZM20.297 3.7H14.697V9.3H20.297V3.7Z" fill="white"/>
</g>
</svg>
