<svg width="24" height="24" viewBox="0 0 24 24" fill="none" xmlns="http://www.w3.org/2000/svg">
<path fill-rule="evenodd" clip-rule="evenodd" d="M23.0734 11.9998L23.8198 9.69583C24.3778 7.97143 23.6014 6.09583 21.9874 5.27143L19.831 4.16983L18.7294 2.01343C17.905 0.399431 16.0294 -0.378169 14.305 0.181031L11.9998 0.926231L9.69583 0.179831C7.97143 -0.378169 6.09583 0.398231 5.27143 2.01223L4.16863 4.16863L2.01223 5.27143C0.398231 6.09583 -0.378169 7.97143 0.179831 9.69583L0.926231 11.9998L0.179831 14.3038C-0.378169 16.0282 0.398231 17.9038 2.01223 18.7282L4.16863 19.8298L5.27023 21.9862C6.09463 23.6002 7.97023 24.3778 9.69463 23.8186L11.9998 23.0734L14.3038 23.8198C16.0282 24.3778 17.9038 23.6014 18.7282 21.9874L19.8298 19.831L21.9862 18.7294C23.6002 17.905 24.3778 16.0294 23.8186 14.305L23.0734 11.9998ZM9.10243 16.4482L6.35083 13.6966C5.88283 13.2286 5.88283 12.4678 6.35083 11.9998C6.81883 11.5318 7.57963 11.5318 8.04763 11.9998L9.95083 13.903L15.454 8.39983C15.922 7.93183 16.6828 7.93183 17.1508 8.39983C17.6188 8.86783 17.6188 9.62863 17.1508 10.0966L10.7992 16.4482C10.3312 16.9162 9.57043 16.9162 9.10243 16.4482Z" fill="#146EB4"/>
</svg>
