<svg width="36" height="36" viewBox="0 0 36 36" fill="none" xmlns="http://www.w3.org/2000/svg">
<path fill-rule="evenodd" clip-rule="evenodd" d="M0 18C0 8.0595 8.0595 0 18 0C27.9405 0 36 8.0595 36 18C36 27.9405 27.9405 36 18 36C8.0595 36 0 27.9405 0 18ZM26.5161 15.1493C26.5161 14.9706 26.5122 14.792 26.5044 14.612C27.2883 14.0232 27.9657 13.291 28.5 12.4546C27.781 12.7862 27.0101 13.0095 26.2014 13.1096C27.0283 12.5926 27.6627 11.7778 27.9618 10.8047C27.1882 11.2825 26.3315 11.6276 25.4201 11.8157C24.6907 11.0064 23.6507 10.5002 22.5001 10.5002C20.2913 10.5002 18.4997 12.3666 18.4997 14.6661C18.4997 14.9923 18.5348 15.3104 18.6024 15.6149C15.2781 15.4416 12.3295 13.7823 10.356 11.2622C10.0115 11.8753 9.81515 12.5913 9.81515 13.356C9.81515 14.8001 10.5224 16.0764 11.595 16.8222C10.9384 16.8005 10.3222 16.6137 9.78265 16.3011V16.3539C9.78265 18.3719 11.162 20.0556 12.9926 20.4373C12.6584 20.532 12.3035 20.5834 11.9382 20.5834C11.6808 20.5834 11.4299 20.5577 11.1854 20.509C11.6938 22.1629 13.172 23.3675 14.9232 23.4013C13.5555 24.5206 11.8316 25.1852 9.95556 25.1852C9.63184 25.1852 9.31332 25.1676 9 25.1283C10.7694 26.3113 12.8717 27.0002 15.1325 27.0002C22.4923 27.0002 26.5161 20.6552 26.5161 15.1493Z" fill="#1EA1F1"/>
</svg>
